<!DOCTYPE svg PUBLIC "-//W3C//DTD SVG 1.1//EN" "http://www.w3.org/Graphics/SVG/1.1/DTD/svg11.dtd">
<!-- Uploaded to: SVG Repo, www.svgrepo.com, Transformed by: SVG Repo Mixer Tools -->
<svg width="256px" height="256px" viewBox="-2.64 -2.64 29.28 29.28" fill="none" xmlns="http://www.w3.org/2000/svg" transform="rotate(0)matrix(1, 0, 0, 1, 0, 0)">
<g id="SVGRepo_bgCarrier" stroke-width="0" transform="translate(0,0), scale(1)">
<path transform="translate(-2.64, -2.64), scale(0.915)" d="M16,27.626783067981403C18.26842750914976,27.048368417746936,20.118677288873084,25.616433360263304,21.813306755035136,24.001330315783306C23.302389334238836,22.582128150839935,24.181714319846776,20.797888002927376,25.097702016394145,18.956022575584285C26.197460646591008,16.744631083081792,27.932959752253787,14.661755210331107,27.679799780088807,12.205003003392381C27.403721120114277,9.525839898021559,26.10332867994782,6.618169158486382,23.700868350299487,5.400664030719115C21.338252279236805,4.203350948806446,18.648231320481862,6.237152609129541,16,6.285980762706862C13.430324188133385,6.333360507903334,10.939531748632703,4.863907431750234,8.502726097432532,5.680887747685777C5.555579851165698,6.668968381115636,2.413872233010513,8.322606145071022,1.2859493738803813,11.219115140205606C0.14613700922177597,14.146156418139636,1.6978398440211915,17.34837728825768,2.8163007843988943,20.283643544359116C3.880162982559506,23.075621966375543,4.9327976506016675,26.186181319207677,7.543017429314462,27.640037912031396C10.067547077836565,29.04616627839171,13.199880705474227,28.340771068843274,16,27.626783067981403" fill="#FFE066" strokewidth="0"/>
</g>
<g id="SVGRepo_tracerCarrier" stroke-linecap="round" stroke-linejoin="round" stroke="#CCCCCC" stroke-width="0.048"/>
<g id="SVGRepo_iconCarrier"> <path d="M12 8V14M15 11H9M12.2896 17.9984C18.0965 17.9343 21 15.9189 21 11C21 6 18 4 12 4C6 4 3 6 3 11C3 14.0771 4.13623 16.018 6.40868 17.0557L5 21L12.2896 17.9984Z" stroke="#000000" stroke-width="1.536" stroke-linecap="round" stroke-linejoin="round"/> </g>
</svg>