<!DOCTYPE svg PUBLIC "-//W3C//DTD SVG 1.1//EN" "http://www.w3.org/Graphics/SVG/1.1/DTD/svg11.dtd">
<!-- Uploaded to: SVG Repo, www.svgrepo.com, Transformed by: SVG Repo Mixer Tools -->
<svg width="256px" height="256px" viewBox="-4.8 -4.8 33.60 33.60" fill="none" xmlns="http://www.w3.org/2000/svg">
<g id="SVGRepo_bgCarrier" stroke-width="0" transform="translate(0,0), scale(1)">
<path transform="translate(-4.8, -4.8), scale(1.05)" d="M16,30.342884519270488C19.253510243283294,30.293927175495924,22.082822931974135,28.302296367979565,24.445852426529417,26.06537497183696C26.675069637352458,23.955124682101207,28.362312571755297,21.294221978218076,28.77239296631128,18.252117488171702C29.169956804849438,15.302864721268463,28.123483076010423,12.43680180074762,26.62998819324539,9.862773455147234C25.13979005848389,7.294427032469603,23.20509749334333,4.88587738370019,20.419849069827436,3.8565644832516117C17.625392072971763,2.8238484740342304,14.649243322695106,3.61611600299722,11.767041283667044,4.37004150939158C8.524086117172896,5.218332705846979,4.8109209949291145,5.682300553860308,2.9032060369889816,8.438562479934514C0.9338868716039743,11.28383001492297,1.1772770478896473,15.108203014795063,2.010139174045319,18.466789919972214C2.7953872943434073,21.633369322881915,4.850979012593511,24.21143594497923,7.338138911121737,26.32280407122266C9.840219663840415,28.446838619103353,12.71830953130345,30.392265906272225,16,30.342884519270488" fill="#2BE8EB" strokewidth="0"/>
</g>
<g id="SVGRepo_tracerCarrier" stroke-linecap="round" stroke-linejoin="round"/>
<g id="SVGRepo_iconCarrier"> <path d="M12 8V14M15 11H9M12.2896 17.9984C18.0965 17.9343 21 15.9189 21 11C21 6 18 4 12 4C6 4 3 6 3 11C3 14.0771 4.13623 16.018 6.40868 17.0557L5 21L12.2896 17.9984Z" stroke="#000000" stroke-width="2" stroke-linecap="round" stroke-linejoin="round"/> </g>
</svg>