<!DOCTYPE svg PUBLIC "-//W3C//DTD SVG 1.1//EN" "http://www.w3.org/Graphics/SVG/1.1/DTD/svg11.dtd">
<!-- Uploaded to: SVG Repo, www.svgrepo.com, Transformed by: SVG Repo Mixer Tools -->
<svg fill="#000000" width="256px" height="256px" viewBox="0 0 24.00 24.00" xmlns="http://www.w3.org/2000/svg" stroke="#000000" stroke-width="0.00024000000000000003">
<g id="SVGRepo_bgCarrier" stroke-width="0">
<path transform="translate(0, 0), scale(0.75)" d="M16,28.700990778835198C20.382194182352862,28.875977192163106,25.950877415410016,29.480348979224697,28.13442642529968,25.67688216352793C30.26139114390549,21.971978042422894,25.434741380274033,18.22738221531917,24.391078420674464,14.08479110738505C23.407172176865398,10.179391170409092,25.873499232131888,4.7601506414505,22.36608031350519,2.7806980167085467C18.849565705486302,0.7961121339615134,15.242223631489669,5.120111603525287,11.601779908920115,6.867001874038284C7.949519348094219,8.61956253018319,3.0437801158629254,8.92168320321909,1.6453903227311795,12.723654013745692C0.13268778249349866,16.83642066238731,2.0941457504780647,21.494256752604542,5.022822022357261,24.754007322196045C7.756905500323047,27.797167216714193,11.912287751288437,28.537763391970625,16,28.700990778835198" fill="#FFE066" strokewidth="0"/>
</g>
<g id="SVGRepo_tracerCarrier" stroke-linecap="round" stroke-linejoin="round"/>
<g id="SVGRepo_iconCarrier">
<path d="M15.874,6.2C13.805,4.75,12.65,3.848,12.98,2.2A1,1,0,0,0,11.758,1.03C11.67,1.052,3,3.319,3,12c0,6.683,3.532,11,9,11h.005c.014,0,.081,0,.178-.007C15.336,22.924,21,20.987,21,14,21,9.8,18.158,7.806,15.874,6.2ZM15.84,19.78A8.1,8.1,0,0,1,12.005,21H12a5.919,5.919,0,0,1-3.142-.846,2.766,2.766,0,0,1-1.224-1.961A3.341,3.341,0,0,1,8.749,15.2c1.375-1.585,2.368-2.73,2.381-4.817C13.219,11.147,17,13.136,17,17.5A2.752,2.752,0,0,1,15.84,19.78Zm2.977-4.029c-.974-4.82-5.879-7.151-8.61-7.73A1,1,0,0,0,9.016,9.174c.391,2.214-.2,2.9-1.778,4.716a5.612,5.612,0,0,0-1.505,2.594A12.772,12.772,0,0,1,5,12a9.179,9.179,0,0,1,5.975-8.581C11.3,5.437,13.1,6.7,14.726,7.84,16.924,9.383,19,10.841,19,14A8.741,8.741,0,0,1,18.817,15.751Z"/>
</g>
</svg>