<svg xmlns="http://www.w3.org/2000/svg" version="1.1" xmlns:xlink="http://www.w3.org/1999/xlink" xmlns:svgjs="http://svgjs.com/svgjs" width="390" height="844" preserveAspectRatio="none" viewBox="0 0 390 844"><g mask="url(&quot;#SvgjsMask3532&quot;)" fill="none"><rect width="390" height="844" x="0" y="0" fill="rgba(43, 232, 235, 1)"></rect><use xlink:href="#SvgjsG3534" transform="translate(0, 0)" fill="rgba(35, 194, 196, 1)"></use></g><defs><mask id="SvgjsMask3532"><rect width="390" height="844" fill="#ffffff"></rect></mask><g id="SvgjsG3533"><path d="M0 13.15h2.917V10.189h2.891V7.203h2.943V4.277h2.917V1.36H16v1.485H13.117v2.926h-2.916v2.96h-2.917V11.674h-2.935v2.978H0z"></path></g><g id="SvgjsG3534"><use xlink:href="#SvgjsG3533" transform="translate(0, 0) scale(3)" fill="rgba(35, 194, 196, 1)"></use><use xlink:href="#SvgjsG3533" transform="translate(0, 114) scale(3)" fill="rgba(35, 194, 196, 1)"></use><use xlink:href="#SvgjsG3533" transform="translate(0, 228) scale(3)" fill="rgba(35, 194, 196, 1)"></use><use xlink:href="#SvgjsG3533" transform="translate(0, 342) scale(3)" fill="rgba(35, 194, 196, 1)"></use><use xlink:href="#SvgjsG3533" transform="translate(0, 456) scale(3)" fill="rgba(35, 194, 196, 1)"></use><use xlink:href="#SvgjsG3533" transform="translate(0, 570) scale(3)" fill="rgba(35, 194, 196, 1)"></use><use xlink:href="#SvgjsG3533" transform="translate(0, 684) scale(3)" fill="rgba(35, 194, 196, 1)"></use><use xlink:href="#SvgjsG3533" transform="translate(0, 798) scale(3)" fill="rgba(35, 194, 196, 1)"></use><use xlink:href="#SvgjsG3533" transform="translate(114, 0) scale(3)" fill="rgba(35, 194, 196, 1)"></use><use xlink:href="#SvgjsG3533" transform="translate(114, 114) scale(3)" fill="rgba(35, 194, 196, 1)"></use><use xlink:href="#SvgjsG3533" transform="translate(114, 228) scale(3)" fill="rgba(35, 194, 196, 1)"></use><use xlink:href="#SvgjsG3533" transform="translate(114, 342) scale(3)" fill="rgba(35, 194, 196, 1)"></use><use xlink:href="#SvgjsG3533" transform="translate(114, 456) scale(3)" fill="rgba(35, 194, 196, 1)"></use><use xlink:href="#SvgjsG3533" transform="translate(114, 570) scale(3)" fill="rgba(35, 194, 196, 1)"></use><use xlink:href="#SvgjsG3533" transform="translate(114, 684) scale(3)" fill="rgba(35, 194, 196, 1)"></use><use xlink:href="#SvgjsG3533" transform="translate(114, 798) scale(3)" fill="rgba(35, 194, 196, 1)"></use><use xlink:href="#SvgjsG3533" transform="translate(228, 0) scale(3)" fill="rgba(35, 194, 196, 1)"></use><use xlink:href="#SvgjsG3533" transform="translate(228, 114) scale(3)" fill="rgba(35, 194, 196, 1)"></use><use xlink:href="#SvgjsG3533" transform="translate(228, 228) scale(3)" fill="rgba(35, 194, 196, 1)"></use><use xlink:href="#SvgjsG3533" transform="translate(228, 342) scale(3)" fill="rgba(35, 194, 196, 1)"></use><use xlink:href="#SvgjsG3533" transform="translate(228, 456) scale(3)" fill="rgba(35, 194, 196, 1)"></use><use xlink:href="#SvgjsG3533" transform="translate(228, 570) scale(3)" fill="rgba(35, 194, 196, 1)"></use><use xlink:href="#SvgjsG3533" transform="translate(228, 684) scale(3)" fill="rgba(35, 194, 196, 1)"></use><use xlink:href="#SvgjsG3533" transform="translate(228, 798) scale(3)" fill="rgba(35, 194, 196, 1)"></use><use xlink:href="#SvgjsG3533" transform="translate(342, 0) scale(3)" fill="rgba(35, 194, 196, 1)"></use><use xlink:href="#SvgjsG3533" transform="translate(342, 114) scale(3)" fill="rgba(35, 194, 196, 1)"></use><use xlink:href="#SvgjsG3533" transform="translate(342, 228) scale(3)" fill="rgba(35, 194, 196, 1)"></use><use xlink:href="#SvgjsG3533" transform="translate(342, 342) scale(3)" fill="rgba(35, 194, 196, 1)"></use><use xlink:href="#SvgjsG3533" transform="translate(342, 456) scale(3)" fill="rgba(35, 194, 196, 1)"></use><use xlink:href="#SvgjsG3533" transform="translate(342, 570) scale(3)" fill="rgba(35, 194, 196, 1)"></use><use xlink:href="#SvgjsG3533" transform="translate(342, 684) scale(3)" fill="rgba(35, 194, 196, 1)"></use><use xlink:href="#SvgjsG3533" transform="translate(342, 798) scale(3)" fill="rgba(35, 194, 196, 1)"></use></g></defs></svg>