<!DOCTYPE svg PUBLIC "-//W3C//DTD SVG 1.1//EN" "http://www.w3.org/Graphics/SVG/1.1/DTD/svg11.dtd">
<!-- Uploaded to: SVG Repo, www.svgrepo.com, Transformed by: SVG Repo Mixer Tools -->
<svg fill="#000000" width="256px" height="256px" viewBox="-2.4 -2.4 28.80 28.80" xmlns="http://www.w3.org/2000/svg" stroke="#000000" stroke-width="0.00024000000000000003">
<g id="SVGRepo_bgCarrier" stroke-width="0">
<path transform="translate(-2.4, -2.4), scale(0.8999999999999999)" d="M16,30.07033639587462C19.069825819412106,29.580398358098705,20.403536826268507,26.080338502297757,22.862588941965193,24.17851502608432C25.501678985344192,22.137450760588937,30.26976153921932,21.903707557779523,30.815185254297287,18.612316884526813C31.361604315043905,15.314919740781711,26.98793065597473,13.502807745911188,25.087286022769604,10.75345296855085C23.43687902328305,8.3660764493667,23.035033656015155,5.061678914661888,20.48696778025597,3.6721573419262956C17.732464786210347,2.1700606462312493,14.316817237391971,2.2022157561789983,11.367233441933461,3.2715784921076665C8.414947051215574,4.341921045821177,6.158462309661318,6.692021599384258,4.614600328553118,9.426636434858658C3.0843332699424177,12.13717082972133,2.446367257922907,15.231289005497487,2.8746404562595345,18.314355019060788C3.3172261404984624,21.500454187690448,4.6190415136614105,24.56162105549706,7.01514302490777,26.707735579011302C9.471250688208627,28.90759576973535,12.743958597103825,30.589994066926977,16,30.07033639587462" fill="#7ed0ec" strokewidth="0"/>
</g>
<g id="SVGRepo_tracerCarrier" stroke-linecap="round" stroke-linejoin="round"/>
<g id="SVGRepo_iconCarrier">
<path d="M22,7H16.333V4a1,1,0,0,0-1-1H8.667a1,1,0,0,0-1,1v7H2a1,1,0,0,0-1,1v8a1,1,0,0,0,1,1H22a1,1,0,0,0,1-1V8A1,1,0,0,0,22,7ZM7.667,19H3V13H7.667Zm6.666,0H9.667V5h4.666ZM21,19H16.333V9H21Z"/>
</g>
</svg>