<svg xmlns="http://www.w3.org/2000/svg" version="1.1" xmlns:xlink="http://www.w3.org/1999/xlink" xmlns:svgjs="http://svgjs.com/svgjs" width="390" height="844" preserveAspectRatio="none" viewBox="0 0 390 844"><g mask="url(&quot;#SvgjsMask3457&quot;)" fill="none"><rect width="390" height="844" x="0" y="0" fill="rgba(255, 167, 131, 1)"></rect><use xlink:href="#SvgjsG3459" transform="translate(0, 0)" fill="rgba(255, 138, 91, 1)"></use></g><defs><mask id="SvgjsMask3457"><rect width="390" height="844" fill="#ffffff"></rect></mask><g id="SvgjsG3458"><path d="M17.29 6.98L7.52 8.95 3.36-0.12z m-4.02 7.9L10.78 9.41l5.88-1.19zM2.71 1.11l2.49 5.47L-0.68 7.77z"></path><path d="M9.71 9.61L6.9 10.17 5.71 7.58-1.27 8.97l13.95 7.1z"></path></g><g id="SvgjsG3459"><use xlink:href="#SvgjsG3458" transform="translate(0, 0) scale(3)" fill="rgba(255, 138, 91, 1)"></use><use xlink:href="#SvgjsG3458" transform="translate(0, 114) scale(3)" fill="rgba(255, 138, 91, 1)"></use><use xlink:href="#SvgjsG3458" transform="translate(0, 228) scale(3)" fill="rgba(255, 138, 91, 1)"></use><use xlink:href="#SvgjsG3458" transform="translate(0, 342) scale(3)" fill="rgba(255, 138, 91, 1)"></use><use xlink:href="#SvgjsG3458" transform="translate(0, 456) scale(3)" fill="rgba(255, 138, 91, 1)"></use><use xlink:href="#SvgjsG3458" transform="translate(0, 570) scale(3)" fill="rgba(255, 138, 91, 1)"></use><use xlink:href="#SvgjsG3458" transform="translate(0, 684) scale(3)" fill="rgba(255, 138, 91, 1)"></use><use xlink:href="#SvgjsG3458" transform="translate(0, 798) scale(3)" fill="rgba(255, 138, 91, 1)"></use><use xlink:href="#SvgjsG3458" transform="translate(114, 0) scale(3)" fill="rgba(255, 138, 91, 1)"></use><use xlink:href="#SvgjsG3458" transform="translate(114, 114) scale(3)" fill="rgba(255, 138, 91, 1)"></use><use xlink:href="#SvgjsG3458" transform="translate(114, 228) scale(3)" fill="rgba(255, 138, 91, 1)"></use><use xlink:href="#SvgjsG3458" transform="translate(114, 342) scale(3)" fill="rgba(255, 138, 91, 1)"></use><use xlink:href="#SvgjsG3458" transform="translate(114, 456) scale(3)" fill="rgba(255, 138, 91, 1)"></use><use xlink:href="#SvgjsG3458" transform="translate(114, 570) scale(3)" fill="rgba(255, 138, 91, 1)"></use><use xlink:href="#SvgjsG3458" transform="translate(114, 684) scale(3)" fill="rgba(255, 138, 91, 1)"></use><use xlink:href="#SvgjsG3458" transform="translate(114, 798) scale(3)" fill="rgba(255, 138, 91, 1)"></use><use xlink:href="#SvgjsG3458" transform="translate(228, 0) scale(3)" fill="rgba(255, 138, 91, 1)"></use><use xlink:href="#SvgjsG3458" transform="translate(228, 114) scale(3)" fill="rgba(255, 138, 91, 1)"></use><use xlink:href="#SvgjsG3458" transform="translate(228, 228) scale(3)" fill="rgba(255, 138, 91, 1)"></use><use xlink:href="#SvgjsG3458" transform="translate(228, 342) scale(3)" fill="rgba(255, 138, 91, 1)"></use><use xlink:href="#SvgjsG3458" transform="translate(228, 456) scale(3)" fill="rgba(255, 138, 91, 1)"></use><use xlink:href="#SvgjsG3458" transform="translate(228, 570) scale(3)" fill="rgba(255, 138, 91, 1)"></use><use xlink:href="#SvgjsG3458" transform="translate(228, 684) scale(3)" fill="rgba(255, 138, 91, 1)"></use><use xlink:href="#SvgjsG3458" transform="translate(228, 798) scale(3)" fill="rgba(255, 138, 91, 1)"></use><use xlink:href="#SvgjsG3458" transform="translate(342, 0) scale(3)" fill="rgba(255, 138, 91, 1)"></use><use xlink:href="#SvgjsG3458" transform="translate(342, 114) scale(3)" fill="rgba(255, 138, 91, 1)"></use><use xlink:href="#SvgjsG3458" transform="translate(342, 228) scale(3)" fill="rgba(255, 138, 91, 1)"></use><use xlink:href="#SvgjsG3458" transform="translate(342, 342) scale(3)" fill="rgba(255, 138, 91, 1)"></use><use xlink:href="#SvgjsG3458" transform="translate(342, 456) scale(3)" fill="rgba(255, 138, 91, 1)"></use><use xlink:href="#SvgjsG3458" transform="translate(342, 570) scale(3)" fill="rgba(255, 138, 91, 1)"></use><use xlink:href="#SvgjsG3458" transform="translate(342, 684) scale(3)" fill="rgba(255, 138, 91, 1)"></use><use xlink:href="#SvgjsG3458" transform="translate(342, 798) scale(3)" fill="rgba(255, 138, 91, 1)"></use></g></defs></svg>