<!DOCTYPE svg PUBLIC "-//W3C//DTD SVG 1.1//EN" "http://www.w3.org/Graphics/SVG/1.1/DTD/svg11.dtd">

<!-- Uploaded to: SVG Repo, www.svgrepo.com, Transformed by: SVG Repo Mixer Tools -->
<svg fill="#00000" width="256px" height="256px" viewBox="-2.4 -2.4 28.80 28.80" id="notification-copy" xmlns="http://www.w3.org/2000/svg" class="icon line" stroke="#00000">

<g id="SVGRepo_bgCarrier" stroke-width="0">

<path transform="translate(-2.4, -2.4), scale(0.8999999999999999)" d="M16,29.25390599668026C18.584144474324123,29.285142969221237,21.28073572585386,30.296403945776543,23.62071682823201,29.19946873659299C26.001475867882334,28.083417665701724,27.966281165101655,25.848316859827534,28.66946623763059,23.3147197427849C29.344630491202167,20.88208248524585,27.725375973058718,18.48573779944455,27.284152233352263,16C26.9265775379278,13.985518782074589,26.789577102571553,12.035108458681297,26.31409065970148,10.045156981175147C25.66726946198996,7.338154883914392,26.428761985045377,3.501162463849761,23.98108068729441,2.1763627502993614C21.505145678983503,0.8362708058155743,18.743313145693705,3.829969045369917,16,4.462688232461613C13.957660602386051,4.9337344655364275,11.720137386788503,4.395353558260787,9.894670855253938,5.4252597243687735C8.062674285775428,6.458850059004206,6.988351486441356,8.368962628007194,5.8931880920081365,10.164829424271975C4.7760033007024365,11.99680726629639,3.5749071761915445,13.858129052107513,3.445936194310587,15.999999999999998C3.3137066961777175,18.195986386818483,4.370939133929683,20.203900150392457,5.165158475733074,22.255498670662433C6.087264196314554,24.63744863373165,6.339364234284389,27.630660291197366,8.484915520374967,29.01650814188286C10.626697031401044,30.399921031118318,13.450468772729105,29.223087426847993,16,29.25390599668026" fill="#00000" strokewidth="0"/>

</g>

<g id="SVGRepo_tracerCarrier" stroke-linecap="round" stroke-linejoin="round"/>

<g id="SVGRepo_iconCarrier">

<path id="primary" d="M19.38,14.38a2.12,2.12,0,0,1,.62,1.5h0A2.12,2.12,0,0,1,17.88,18H6.12A2.12,2.12,0,0,1,4,15.88H4a2.12,2.12,0,0,1,.62-1.5L6,13V9a6,6,0,0,1,6-6h0a6,6,0,0,1,6,6v4ZM15,18H9a3,3,0,0,0,3,3h0A3,3,0,0,0,15,18Z" style="fill: none; stroke: #FF8A5B; stroke-linecap: round; stroke-linejoin: round; stroke-width:1.8;"/>

</g>

</svg>