<!DOCTYPE svg PUBLIC "-//W3C//DTD SVG 1.1//EN" "http://www.w3.org/Graphics/SVG/1.1/DTD/svg11.dtd">
<!-- Uploaded to: SVG Repo, www.svgrepo.com, Transformed by: SVG Repo Mixer Tools -->
<svg fill="#000000" width="256px" height="256px" viewBox="-4.32 -4.32 32.64 32.64" xmlns="http://www.w3.org/2000/svg" stroke="#000000" stroke-width="0.00024000000000000003">
<g id="SVGRepo_bgCarrier" stroke-width="0" transform="translate(0,0), scale(1)">
<path transform="translate(-4.32, -4.32), scale(1.02)" d="M16,28.12947396401848C17.677974783808402,27.912344091050652,19.22737020772787,27.310129125729656,20.88533499266683,26.972642046370787C22.931753100266832,26.55608333743147,25.229277882423553,27.020298730419537,26.987249613306048,25.892963987530642C28.771641442964476,24.748686824728253,29.85903588092561,22.72992317308043,30.59905824506796,20.743521570273987C31.350157885669027,18.727385839448544,31.437428693437205,16.54001360834238,31.27075714132417,14.394978748733257C31.101777557231618,12.220239905508453,30.72021552732438,10.019984974766336,29.61950047571476,8.136777734117853C28.520607589507524,6.256688026090021,26.874461977210412,4.714999742426352,24.98256954675375,3.6365536764731985C23.160711627420998,2.5980297761710283,21.059687274847406,2.062973766238687,18.962618565150507,2.061975495493103C17.005335110210638,2.0610437669308257,15.320025718823251,3.4525806970811206,13.37089344769129,3.6310261529813346C11.123649825943575,3.8367640695613776,8.735417237357753,2.232802573924117,6.68977144329047,3.185569739090571C4.713658580901022,4.105951681755388,3.8863791210232317,6.498952961552204,2.9682313472659576,8.476104860327066C2.090444754564392,10.366342443082264,1.7589059105811016,12.409680389667946,1.4492169315762187,14.470651073076555C1.1299051791130708,16.595661019536415,0.46958954117091345,18.786825764076728,1.1107145860586485,20.837822093822865C1.7527682589466145,22.89178915858452,3.333531846852164,24.54906430108846,5.018205250163472,25.888052406401584C6.60398681962412,27.148440713689542,8.532600582420404,27.909168820966908,10.517338004471917,28.31426046084312C12.328784162656833,28.683982765977117,14.166494726284991,28.36672947644282,16,28.12947396401848" fill="#FF738D" strokewidth="0"/>
</g>
<g id="SVGRepo_tracerCarrier" stroke-linecap="round" stroke-linejoin="round"/>
<g id="SVGRepo_iconCarrier">
<path d="M22,7H16.333V4a1,1,0,0,0-1-1H8.667a1,1,0,0,0-1,1v7H2a1,1,0,0,0-1,1v8a1,1,0,0,0,1,1H22a1,1,0,0,0,1-1V8A1,1,0,0,0,22,7ZM7.667,19H3V13H7.667Zm6.666,0H9.667V5h4.666ZM21,19H16.333V9H21Z"/>
</g>
</svg>