<!DOCTYPE svg PUBLIC "-//W3C//DTD SVG 1.1//EN" "http://www.w3.org/Graphics/SVG/1.1/DTD/svg11.dtd">
<!-- Uploaded to: SVG Repo, www.svgrepo.com, Transformed by: SVG Repo Mixer Tools -->
<svg width="256px" height="256px" viewBox="-3.6 -3.6 31.20 31.20" fill="none" xmlns="http://www.w3.org/2000/svg" stroke="#000000">
<g id="SVGRepo_bgCarrier" stroke-width="0">
<path transform="translate(-3.6, -3.6), scale(0.9750000000000001)" d="M16,28.777637766940252C17.83563337561061,28.449640393196358,19.748996901641164,28.981831459457016,21.519961528625135,28.398036583828585C23.357726365021936,27.792221155473175,25.37287926017525,27.000762791175006,26.387884193114882,25.353292939178246C27.416649185653583,23.68348892641491,26.746079912164742,21.511476196039922,26.96364881828789,19.562305443642366C27.143704405676452,17.94921150022339,27.42854122561124,16.40133636127032,27.567620380412826,14.784194106073057C27.730445786381807,12.89094242081702,28.316655352143297,10.997556783948031,27.858856146175043,9.153286211724794C27.361785931858485,7.15081011163236,26.416611495333235,5.162326857282974,24.846839324462792,3.8233703004960073C23.259143864698895,2.4691258531295004,21.102213402444058,2.030554695550169,19.0520178839358,1.6413847685689475C17.025156601500967,1.2566441669212751,14.868649419643518,0.8531797675374646,12.93100109524995,1.5614953467564998C11.022615743677882,2.2591137219046065,10.056788485445832,4.3632927811319355,8.397576127301223,5.536161229858958C6.7147725765645925,6.72570588360772,3.8796946159421837,6.639479422732892,3.067823628955715,8.533604490969857C2.218329392339633,10.515505993411601,4.499895355971344,12.629052881012587,4.433576173930973,14.784319869002307C4.373467602735103,16.73775197126831,2.5187372884711845,18.37431146057159,2.7051548733859025,20.319757040002983C2.8934935893100575,22.2852514567344,4.36352416066236,23.848311325303268,5.459490631134107,25.49071726468611C6.672418549472462,27.3084006252589,7.439708595658688,29.890651978072295,9.525846476562968,30.541186893541095C11.684706705315392,31.214399325603182,13.773866824392544,29.175411006904643,16,28.777637766940252" fill="#000000" strokewidth="0"/>
</g>
<g id="SVGRepo_tracerCarrier" stroke-linecap="round" stroke-linejoin="round"/>
<g id="SVGRepo_iconCarrier"> <path d="M12 8V14M15 11H9M12.2896 17.9984C18.0965 17.9343 21 15.9189 21 11C21 6 18 4 12 4C6 4 3 6 3 11C3 14.0771 4.13623 16.018 6.40868 17.0557L5 21L12.2896 17.9984Z" stroke="#F56882" stroke-width="1.8" stroke-linecap="round" stroke-linejoin="round"/> </g>
</svg>