<svg xmlns="http://www.w3.org/2000/svg" version="1.1" xmlns:xlink="http://www.w3.org/1999/xlink" xmlns:svgjs="http://svgjs.com/svgjs" width="390" height="844" preserveAspectRatio="none" viewBox="0 0 390 844"><g mask="url(&quot;#SvgjsMask3401&quot;)" fill="none"><rect width="390" height="844" x="0" y="0" fill="rgba(255, 224, 102, 1)"></rect><use xlink:href="#SvgjsG3403" transform="translate(0, 0)" fill="rgba(255, 211, 38, 1)"></use></g><defs><mask id="SvgjsMask3401"><rect width="390" height="844" fill="#ffffff"></rect></mask><g id="SvgjsG3402"><path d="M14.344 10.747c0 2.735-2.217 4.952-4.952 4.952-2.735 0-4.952-2.217-4.953-4.952 0-1.3 0.294-3.189 2.021-4.918 3.16-3.16 3.308-4.973 3.308-4.973 3.797 3.797 4.576 7.155 4.576 9.889z"></path><path d="M3.978 3.8s0.461 3.022 3.141 4.749c1.488 0.959 4.571 3.643 4.57 4.584 0 1.981-4.712 2.565-6.693 2.566s-3.588-1.606-3.588-3.588c0-1.982-0.18-5.56 2.571-8.311z"></path><path d="M8.123 6.557s0.08 0.983 1.792 2.695c0.936 0.935 1.095 1.959 1.095 2.663 0 1.482-1.201 2.683-2.684 2.683s-2.683-1.201-2.683-2.684c0-1.481 0.422-3.301 2.48-5.358z"></path></g><g id="SvgjsG3403"><use xlink:href="#SvgjsG3402" transform="translate(0, 0) scale(3)" fill="rgba(255, 211, 38, 1)"></use><use xlink:href="#SvgjsG3402" transform="translate(0, 114) scale(3)" fill="rgba(255, 211, 38, 1)"></use><use xlink:href="#SvgjsG3402" transform="translate(0, 228) scale(3)" fill="rgba(255, 211, 38, 1)"></use><use xlink:href="#SvgjsG3402" transform="translate(0, 342) scale(3)" fill="rgba(255, 211, 38, 1)"></use><use xlink:href="#SvgjsG3402" transform="translate(0, 456) scale(3)" fill="rgba(255, 211, 38, 1)"></use><use xlink:href="#SvgjsG3402" transform="translate(0, 570) scale(3)" fill="rgba(255, 211, 38, 1)"></use><use xlink:href="#SvgjsG3402" transform="translate(0, 684) scale(3)" fill="rgba(255, 211, 38, 1)"></use><use xlink:href="#SvgjsG3402" transform="translate(0, 798) scale(3)" fill="rgba(255, 211, 38, 1)"></use><use xlink:href="#SvgjsG3402" transform="translate(114, 0) scale(3)" fill="rgba(255, 211, 38, 1)"></use><use xlink:href="#SvgjsG3402" transform="translate(114, 114) scale(3)" fill="rgba(255, 211, 38, 1)"></use><use xlink:href="#SvgjsG3402" transform="translate(114, 228) scale(3)" fill="rgba(255, 211, 38, 1)"></use><use xlink:href="#SvgjsG3402" transform="translate(114, 342) scale(3)" fill="rgba(255, 211, 38, 1)"></use><use xlink:href="#SvgjsG3402" transform="translate(114, 456) scale(3)" fill="rgba(255, 211, 38, 1)"></use><use xlink:href="#SvgjsG3402" transform="translate(114, 570) scale(3)" fill="rgba(255, 211, 38, 1)"></use><use xlink:href="#SvgjsG3402" transform="translate(114, 684) scale(3)" fill="rgba(255, 211, 38, 1)"></use><use xlink:href="#SvgjsG3402" transform="translate(114, 798) scale(3)" fill="rgba(255, 211, 38, 1)"></use><use xlink:href="#SvgjsG3402" transform="translate(228, 0) scale(3)" fill="rgba(255, 211, 38, 1)"></use><use xlink:href="#SvgjsG3402" transform="translate(228, 114) scale(3)" fill="rgba(255, 211, 38, 1)"></use><use xlink:href="#SvgjsG3402" transform="translate(228, 228) scale(3)" fill="rgba(255, 211, 38, 1)"></use><use xlink:href="#SvgjsG3402" transform="translate(228, 342) scale(3)" fill="rgba(255, 211, 38, 1)"></use><use xlink:href="#SvgjsG3402" transform="translate(228, 456) scale(3)" fill="rgba(255, 211, 38, 1)"></use><use xlink:href="#SvgjsG3402" transform="translate(228, 570) scale(3)" fill="rgba(255, 211, 38, 1)"></use><use xlink:href="#SvgjsG3402" transform="translate(228, 684) scale(3)" fill="rgba(255, 211, 38, 1)"></use><use xlink:href="#SvgjsG3402" transform="translate(228, 798) scale(3)" fill="rgba(255, 211, 38, 1)"></use><use xlink:href="#SvgjsG3402" transform="translate(342, 0) scale(3)" fill="rgba(255, 211, 38, 1)"></use><use xlink:href="#SvgjsG3402" transform="translate(342, 114) scale(3)" fill="rgba(255, 211, 38, 1)"></use><use xlink:href="#SvgjsG3402" transform="translate(342, 228) scale(3)" fill="rgba(255, 211, 38, 1)"></use><use xlink:href="#SvgjsG3402" transform="translate(342, 342) scale(3)" fill="rgba(255, 211, 38, 1)"></use><use xlink:href="#SvgjsG3402" transform="translate(342, 456) scale(3)" fill="rgba(255, 211, 38, 1)"></use><use xlink:href="#SvgjsG3402" transform="translate(342, 570) scale(3)" fill="rgba(255, 211, 38, 1)"></use><use xlink:href="#SvgjsG3402" transform="translate(342, 684) scale(3)" fill="rgba(255, 211, 38, 1)"></use><use xlink:href="#SvgjsG3402" transform="translate(342, 798) scale(3)" fill="rgba(255, 211, 38, 1)"></use></g></defs></svg>