<svg xmlns="http://www.w3.org/2000/svg" version="1.1" xmlns:xlink="http://www.w3.org/1999/xlink" xmlns:svgjs="http://svgjs.com/svgjs" width="390" height="844" preserveAspectRatio="none" viewBox="0 0 390 844"><g mask="url(&quot;#SvgjsMask3497&quot;)" fill="none"><rect width="390" height="844" x="0" y="0" fill="rgba(251, 130, 152, 1)"></rect><use xlink:href="#SvgjsG3499" transform="translate(0, 0)" fill="rgba(245, 104, 130, 1)"></use></g><defs><mask id="SvgjsMask3497"><rect width="390" height="844" fill="#ffffff"></rect></mask><g id="SvgjsG3498"><path d="M7.926 0C3.552-0.003 0.004 3.58 0 7.996 0.004 12.419 3.552 16.002 7.926 16c4.377 0.002 7.924-3.581 7.927-8.004C15.85 3.58 12.303-0.003 7.926 0z m0 14.157c-3.366 0-6.095-2.757-6.091-6.161C1.831 4.598 4.56 1.842 7.926 1.843c3.368-0.001 6.098 2.756 6.102 6.153C14.024 11.4 11.294 14.157 7.927 14.157z"></path><path d="M7.104 10.825l1.792-0.008V9.432c-0.004-0.376 0.171-0.732 0.64-1.038 0.47-0.309 1.781-0.933 1.783-2.579-0.002-1.639-1.378-2.768-2.536-3.011-1.156-0.236-2.409-0.078-3.297 0.9-0.798 0.868-0.966 1.559-0.969 3.08h1.791v-0.354c-0.004-0.81 0.09-1.666 1.246-1.904 0.636-0.124 1.229 0.074 1.584 0.416 0.4 0.396 0.403 1.282-0.242 1.721l-1.004 0.684c-0.585 0.379-0.786 0.797-0.788 1.41v2.068z m-0.008 2.536V11.526h1.808v1.835z"></path></g><g id="SvgjsG3499"><use xlink:href="#SvgjsG3498" transform="translate(0, 0) scale(3)" fill="rgba(245, 104, 130, 1)"></use><use xlink:href="#SvgjsG3498" transform="translate(0, 114) scale(3)" fill="rgba(245, 104, 130, 1)"></use><use xlink:href="#SvgjsG3498" transform="translate(0, 228) scale(3)" fill="rgba(245, 104, 130, 1)"></use><use xlink:href="#SvgjsG3498" transform="translate(0, 342) scale(3)" fill="rgba(245, 104, 130, 1)"></use><use xlink:href="#SvgjsG3498" transform="translate(0, 456) scale(3)" fill="rgba(245, 104, 130, 1)"></use><use xlink:href="#SvgjsG3498" transform="translate(0, 570) scale(3)" fill="rgba(245, 104, 130, 1)"></use><use xlink:href="#SvgjsG3498" transform="translate(0, 684) scale(3)" fill="rgba(245, 104, 130, 1)"></use><use xlink:href="#SvgjsG3498" transform="translate(0, 798) scale(3)" fill="rgba(245, 104, 130, 1)"></use><use xlink:href="#SvgjsG3498" transform="translate(114, 0) scale(3)" fill="rgba(245, 104, 130, 1)"></use><use xlink:href="#SvgjsG3498" transform="translate(114, 114) scale(3)" fill="rgba(245, 104, 130, 1)"></use><use xlink:href="#SvgjsG3498" transform="translate(114, 228) scale(3)" fill="rgba(245, 104, 130, 1)"></use><use xlink:href="#SvgjsG3498" transform="translate(114, 342) scale(3)" fill="rgba(245, 104, 130, 1)"></use><use xlink:href="#SvgjsG3498" transform="translate(114, 456) scale(3)" fill="rgba(245, 104, 130, 1)"></use><use xlink:href="#SvgjsG3498" transform="translate(114, 570) scale(3)" fill="rgba(245, 104, 130, 1)"></use><use xlink:href="#SvgjsG3498" transform="translate(114, 684) scale(3)" fill="rgba(245, 104, 130, 1)"></use><use xlink:href="#SvgjsG3498" transform="translate(114, 798) scale(3)" fill="rgba(245, 104, 130, 1)"></use><use xlink:href="#SvgjsG3498" transform="translate(228, 0) scale(3)" fill="rgba(245, 104, 130, 1)"></use><use xlink:href="#SvgjsG3498" transform="translate(228, 114) scale(3)" fill="rgba(245, 104, 130, 1)"></use><use xlink:href="#SvgjsG3498" transform="translate(228, 228) scale(3)" fill="rgba(245, 104, 130, 1)"></use><use xlink:href="#SvgjsG3498" transform="translate(228, 342) scale(3)" fill="rgba(245, 104, 130, 1)"></use><use xlink:href="#SvgjsG3498" transform="translate(228, 456) scale(3)" fill="rgba(245, 104, 130, 1)"></use><use xlink:href="#SvgjsG3498" transform="translate(228, 570) scale(3)" fill="rgba(245, 104, 130, 1)"></use><use xlink:href="#SvgjsG3498" transform="translate(228, 684) scale(3)" fill="rgba(245, 104, 130, 1)"></use><use xlink:href="#SvgjsG3498" transform="translate(228, 798) scale(3)" fill="rgba(245, 104, 130, 1)"></use><use xlink:href="#SvgjsG3498" transform="translate(342, 0) scale(3)" fill="rgba(245, 104, 130, 1)"></use><use xlink:href="#SvgjsG3498" transform="translate(342, 114) scale(3)" fill="rgba(245, 104, 130, 1)"></use><use xlink:href="#SvgjsG3498" transform="translate(342, 228) scale(3)" fill="rgba(245, 104, 130, 1)"></use><use xlink:href="#SvgjsG3498" transform="translate(342, 342) scale(3)" fill="rgba(245, 104, 130, 1)"></use><use xlink:href="#SvgjsG3498" transform="translate(342, 456) scale(3)" fill="rgba(245, 104, 130, 1)"></use><use xlink:href="#SvgjsG3498" transform="translate(342, 570) scale(3)" fill="rgba(245, 104, 130, 1)"></use><use xlink:href="#SvgjsG3498" transform="translate(342, 684) scale(3)" fill="rgba(245, 104, 130, 1)"></use><use xlink:href="#SvgjsG3498" transform="translate(342, 798) scale(3)" fill="rgba(245, 104, 130, 1)"></use></g></defs></svg>