<!DOCTYPE svg PUBLIC "-//W3C//DTD SVG 1.1//EN" "http://www.w3.org/Graphics/SVG/1.1/DTD/svg11.dtd">

<!-- Uploaded to: SVG Repo, www.svgrepo.com, Transformed by: SVG Repo Mixer Tools -->
<svg width="256px" height="256px" viewBox="-2.4 -2.4 28.80 28.80" fill="none" xmlns="http://www.w3.org/2000/svg">

<g id="SVGRepo_bgCarrier" stroke-width="0">

<path transform="translate(-2.4, -2.4), scale(0.8999999999999999)" d="M16,27.648704091707863C19.615944335904423,27.95071409020692,23.710589994223216,28.83624272016824,26.396106100163298,26.3961061001633C29.133854660257565,23.90850958079211,28.768358318492723,19.69874667589728,28.820094659924507,16C28.872926472334633,12.222935655563592,29.210024799160553,8.123868148617934,26.691063583379737,5.308936416620263C24.0816945065743,2.3929741664765003,19.90220656557295,1.3830192113117001,16,1.6735820149381961C12.359311769747496,1.9446718615508747,9.398331612917277,4.235634086686833,6.790737648691893,6.790737648691891C4.1469956877315735,9.381261554693726,1.293783352812129,12.299611126523924,1.3792693093419075,15.999999999999996C1.4636948502891782,19.654487181758903,4.347634394394948,22.515532065970273,7.206632328989098,24.7933676710109C9.712309774650727,26.789703950731056,12.80740307939299,27.38205281015282,16,27.648704091707863" fill="#000000" strokewidth="0"/>

</g>

<g id="SVGRepo_tracerCarrier" stroke-linecap="round" stroke-linejoin="round"/>

<g id="SVGRepo_iconCarrier"> <path d="M16.9696 19.5047C16.7257 17.5293 15.0414 16 13 16H11C8.95858 16 7.27433 17.5293 7.03036 19.5047M16.9696 19.5047C19.3986 17.893 21 15.1335 21 12C21 7.02944 16.9706 3 12 3C7.02944 3 3 7.02944 3 12C3 15.1335 4.60137 17.893 7.03036 19.5047M16.9696 19.5047C15.5456 20.4496 13.8371 21 12 21C10.1629 21 8.45441 20.4496 7.03036 19.5047M15 10C15 11.6569 13.6569 13 12 13C10.3431 13 9 11.6569 9 10C9 8.34315 10.3431 7 12 7C13.6569 7 15 8.34315 15 10Z" stroke="#ffffff" stroke-width="1.8" stroke-linecap="round" stroke-linejoin="round"/> </g>

</svg>